NotoSansSamaritan-Regular.ufo
<glyph name="uni0800" format="2">
  <advance width="927"/>
  <unicode hex="0800"/>
  <outline>
    <contour>
      <point x="109" y="-42" type="curve"/>
      <point x="226" y="2" type="line"/>
      <point x="212" y="30"/>
      <point x="208" y="71"/>
      <point x="208" y="119" type="curve" smooth="yes"/>
      <point x="208" y="225"/>
      <point x="240" y="378"/>
      <point x="309" y="498" type="curve"/>
      <point x="401" y="421"/>
      <point x="463" y="279"/>
      <point x="511" y="71" type="curve"/>
      <point x="566" y="60" type="line"/>
      <point x="642" y="158"/>
      <point x="745" y="255"/>
      <point x="858" y="324" type="curve"/>
      <point x="798" y="429" type="line"/>
      <point x="708" y="376"/>
      <point x="600" y="245"/>
      <point x="559" y="173" type="curve"/>
      <point x="543" y="230"/>
      <point x="527" y="286"/>
      <point x="509" y="336" type="curve"/>
      <point x="581" y="417"/>
      <point x="669" y="490"/>
      <point x="767" y="549" type="curve"/>
      <point x="708" y="648" type="line"/>
      <point x="625" y="599"/>
      <point x="540" y="499"/>
      <point x="478" y="415" type="curve"/>
      <point x="417" y="553"/>
      <point x="335" y="648"/>
      <point x="215" y="673" type="curve"/>
      <point x="184" y="558" type="line"/>
      <point x="210" y="552"/>
      <point x="235" y="543"/>
      <point x="258" y="532" type="curve"/>
      <point x="176" y="404"/>
      <point x="88" y="229"/>
      <point x="88" y="87" type="curve" smooth="yes"/>
      <point x="88" y="41"/>
      <point x="93" y="-9"/>
    </contour>
  </outline>
</glyph>
<glyph name="uni0801" format="2">
  <advance width="776"/>
  <unicode hex="0801"/>
  <outline>
    <contour>
      <point x="502" y="-39" type="curve" smooth="yes"/>
      <point x="666" y="-39"/>
      <point x="708" y="41"/>
      <point x="708" y="87" type="curve" smooth="yes"/>
      <point x="708" y="148"/>
      <point x="377" y="661"/>
      <point x="334" y="661" type="curve" smooth="yes"/>
      <point x="308" y="661"/>
      <point x="295" y="651"/>
      <point x="277" y="636" type="curve" smooth="yes"/>
      <point x="196" y="565"/>
      <point x="73" y="420"/>
      <point x="73" y="383" type="curve" smooth="yes"/>
      <point x="73" y="367"/>
      <point x="81" y="354"/>
      <point x="104" y="333" type="curve" smooth="yes"/>
      <point x="115" y="323"/>
      <point x="133" y="319"/>
      <point x="169" y="319" type="curve" smooth="yes"/>
      <point x="322" y="319" type="line" smooth="yes"/>
      <point x="363" y="319"/>
      <point x="433" y="316"/>
      <point x="491" y="311" type="curve"/>
      <point x="543" y="215"/>
      <point x="588" y="124"/>
      <point x="588" y="93" type="curve" smooth="yes"/>
      <point x="588" y="43"/>
      <point x="552" y="39"/>
      <point x="493" y="39" type="curve" smooth="yes"/>
      <point x="367" y="39"/>
      <point x="219" y="116"/>
      <point x="106" y="116" type="curve" smooth="yes"/>
      <point x="93" y="116"/>
      <point x="81" y="115"/>
      <point x="68" y="112" type="curve"/>
      <point x="49" y="-2" type="line"/>
      <point x="65" y="1"/>
      <point x="84" y="3"/>
      <point x="105" y="3" type="curve" smooth="yes"/>
      <point x="221" y="3"/>
      <point x="375" y="-39"/>
    </contour>
    <contour>
      <point x="444" y="394" type="curve"/>
      <point x="393" y="395"/>
      <point x="332" y="396"/>
      <point x="311" y="396" type="curve" smooth="yes"/>
      <point x="203" y="396" type="line" smooth="yes"/>
      <point x="195" y="396"/>
      <point x="192" y="398"/>
      <point x="192" y="404" type="curve" smooth="yes"/>
      <point x="192" y="438"/>
      <point x="291" y="574"/>
      <point x="311" y="583" type="curve"/>
      <point x="329" y="578"/>
      <point x="387" y="492"/>
    </contour>
  </outline>
</glyph>
<glyph name="uni0802" format="2">
  <advance width="791"/>
  <unicode hex="0802"/>
  <outline>
    <contour>
      <point x="677" y="-46" type="line"/>
      <point x="701" y="0"/>
      <point x="713" y="48"/>
      <point x="713" y="99" type="curve" smooth="yes"/>
      <point x="713" y="225"/>
      <point x="623" y="414"/>
      <point x="490" y="581" type="curve"/>
      <point x="561" y="581" type="line" smooth="yes"/>
      <point x="587" y="581"/>
      <point x="615" y="581"/>
      <point x="642" y="582" type="curve"/>
      <point x="630" y="648" type="line"/>
      <point x="600" y="648" type="line" smooth="yes"/>
      <point x="576" y="648"/>
      <point x="462" y="659"/>
      <point x="363" y="659" type="curve" smooth="yes"/>
      <point x="195" y="659"/>
      <point x="77" y="622"/>
      <point x="39" y="544" type="curve"/>
      <point x="109" y="458" type="line"/>
      <point x="166" y="550"/>
      <point x="250" y="573"/>
      <point x="395" y="579" type="curve"/>
      <point x="521" y="414"/>
      <point x="593" y="247"/>
      <point x="593" y="129" type="curve" smooth="yes"/>
      <point x="593" y="83"/>
      <point x="582" y="40"/>
      <point x="561" y="0" type="curve"/>
    </contour>
  </outline>
</glyph>
<glyph name="uni0807" format="2">
  <advance width="945"/>
  <unicode hex="0807"/>
  <outline>
    <contour>
      <point x="832" y="-46" type="line"/>
      <point x="856" y="0"/>
      <point x="867" y="48"/>
      <point x="867" y="99" type="curve" smooth="yes"/>
      <point x="867" y="229"/>
      <point x="774" y="428"/>
      <point x="632" y="596" type="curve" smooth="yes"/>
      <point x="586" y="650" type="line"/>
      <point x="565" y="654"/>
      <point x="486" y="659"/>
      <point x="456" y="659" type="curve" smooth="yes"/>
      <point x="355" y="659"/>
      <point x="255" y="640"/>
      <point x="194" y="598" type="curve"/>
      <point x="149" y="641"/>
      <point x="100" y="669"/>
      <point x="46" y="677" type="curve"/>
      <point x="15" y="562" type="line"/>
      <point x="180" y="529"/>
      <point x="280" y="372"/>
      <point x="346" y="80" type="curve"/>
      <point x="461" y="51" type="line"/>
      <point x="477" y="143"/>
      <point x="609" y="231"/>
      <point x="711" y="292" type="curve"/>
      <point x="736" y="232"/>
      <point x="748" y="177"/>
      <point x="748" y="129" type="curve" smooth="yes"/>
      <point x="748" y="83"/>
      <point x="737" y="40"/>
      <point x="715" y="0" type="curve"/>
    </contour>
    <contour>
      <point x="393" y="142" type="curve"/>
      <point x="390" y="175"/>
      <point x="384" y="209"/>
      <point x="376" y="243" type="curve"/>
      <point x="415" y="327"/>
      <point x="527" y="416"/>
      <point x="616" y="471" type="curve"/>
      <point x="643" y="430"/>
      <point x="666" y="390"/>
      <point x="685" y="351" type="curve"/>
      <point x="614" y="312"/>
      <point x="462" y="236"/>
    </contour>
    <contour>
      <point x="337" y="370" type="curve"/>
      <point x="317" y="422"/>
      <point x="292" y="471"/>
      <point x="263" y="515" type="curve"/>
      <point x="306" y="550"/>
      <point x="381" y="580"/>
      <point x="537" y="583" type="curve"/>
      <point x="552" y="563"/>
      <point x="566" y="543"/>
      <point x="580" y="523" type="curve"/>
      <point x="523" y="492"/>
      <point x="411" y="439"/>
    </contour>
  </outline>
</glyph>
<glyph name="uni0809" format="2">
  <advance width="1094"/>
  <unicode hex="0809"/>
  <outline>
    <contour>
      <point x="686" y="-32" type="line"/>
      <point x="695" y="96"/>
      <point x="878" y="331"/>
      <point x="878" y="503" type="curve" smooth="yes"/>
      <point x="878" y="505"/>
      <point x="878" y="507"/>
      <point x="877" y="508" type="curve"/>
      <point x="910" y="566"/>
      <point x="965" y="583"/>
      <point x="1045" y="610" type="curve"/>
      <point x="1021" y="719" type="line"/>
      <point x="938" y="694"/>
      <point x="885" y="657"/>
      <point x="848" y="612" type="curve"/>
      <point x="819" y="653"/>
      <point x="773" y="674"/>
      <point x="719" y="674" type="curve" smooth="yes"/>
      <point x="648" y="674"/>
      <point x="584" y="633"/>
      <point x="528" y="574" type="curve"/>
      <point x="503" y="620"/>
      <point x="460" y="643"/>
      <point x="402" y="643" type="curve" smooth="yes"/>
      <point x="229" y="643"/>
      <point x="94" y="407"/>
      <point x="49" y="208" type="curve"/>
      <point x="180" y="235" type="line"/>
      <point x="206" y="336"/>
      <point x="272" y="567"/>
      <point x="393" y="567" type="curve" smooth="yes"/>
      <point x="436" y="567"/>
      <point x="461" y="543"/>
      <point x="467" y="497" type="curve"/>
      <point x="363" y="347"/>
      <point x="300" y="148"/>
      <point x="298" y="102" type="curve"/>
      <point x="426" y="116" type="line"/>
      <point x="430" y="191"/>
      <point x="560" y="599"/>
      <point x="709" y="599" type="curve" smooth="yes"/>
      <point x="763" y="599"/>
      <point x="798" y="562"/>
      <point x="798" y="504" type="curve" smooth="yes"/>
      <point x="798" y="354"/>
      <point x="582" y="128"/>
      <point x="563" y="0" type="curve"/>
    </contour>
  </outline>
</glyph>
<glyph name="uni080B" format="2">
  <advance width="607"/>
  <unicode hex="080B"/>
  <outline>
    <contour>
      <point x="136" y="-28" type="curve" smooth="yes"/>
      <point x="264" y="-28"/>
      <point x="343" y="0"/>
      <point x="458" y="0" type="curve" smooth="yes"/>
      <point x="480" y="0"/>
      <point x="513" y="-1"/>
      <point x="529" y="-6" type="curve"/>
      <point x="510" y="109" type="line"/>
      <point x="497" y="111"/>
      <point x="470" y="113"/>
      <point x="458" y="113" type="curve" smooth="yes"/>
      <point x="345" y="113"/>
      <point x="266" y="49"/>
      <point x="150" y="49" type="curve" smooth="yes"/>
      <point x="132" y="49"/>
      <point x="116" y="53"/>
      <point x="102" y="60" type="curve"/>
      <point x="234" y="262"/>
      <point x="389" y="467"/>
      <point x="389" y="664" type="curve" smooth="yes"/>
      <point x="389" y="726"/>
      <point x="359" y="825"/>
      <point x="251" y="881" type="curve"/>
      <point x="202" y="768" type="line"/>
      <point x="265" y="747"/>
      <point x="297" y="692"/>
      <point x="297" y="629" type="curve" smooth="yes"/>
      <point x="297" y="455"/>
      <point x="128" y="193"/>
      <point x="42" y="83" type="curve"/>
      <point x="20" y="-5" type="line"/>
      <point x="50" y="-20"/>
      <point x="88" y="-28"/>
    </contour>
  </outline>
</glyph>
<glyph name="uni080C" format="2">
  <advance width="912"/>
  <unicode hex="080C"/>
  <outline>
    <contour>
      <point x="614" y="-43" type="curve" smooth="yes"/>
      <point x="751" y="-43"/>
      <point x="791" y="37"/>
      <point x="791" y="83" type="curve" smooth="yes"/>
      <point x="791" y="86"/>
      <point x="791" y="113"/>
      <point x="791" y="155" type="curve" smooth="yes"/>
      <point x="791" y="280"/>
      <point x="794" y="528"/>
      <point x="824" y="632" type="curve"/>
      <point x="706" y="658" type="line"/>
      <point x="701" y="633"/>
      <point x="698" y="608"/>
      <point x="695" y="583" type="curve"/>
      <point x="671" y="494"/>
      <point x="639" y="417"/>
      <point x="573" y="417" type="curve" smooth="yes"/>
      <point x="504" y="417"/>
      <point x="493" y="475"/>
      <point x="493" y="528" type="curve" smooth="yes"/>
      <point x="493" y="554"/>
      <point x="499" y="594"/>
      <point x="508" y="631" type="curve"/>
      <point x="403" y="662" type="line"/>
      <point x="396" y="636"/>
      <point x="391" y="608"/>
      <point x="388" y="582" type="curve"/>
      <point x="365" y="494"/>
      <point x="331" y="417"/>
      <point x="267" y="417" type="curve" smooth="yes"/>
      <point x="197" y="417"/>
      <point x="186" y="475"/>
      <point x="186" y="528" type="curve" smooth="yes"/>
      <point x="186" y="554"/>
      <point x="191" y="594"/>
      <point x="201" y="631" type="curve"/>
      <point x="96" y="662" type="line"/>
      <point x="83" y="616"/>
      <point x="78" y="565"/>
      <point x="78" y="530" type="curve" smooth="yes"/>
      <point x="78" y="411"/>
      <point x="141" y="340"/>
      <point x="259" y="340" type="curve" smooth="yes"/>
      <point x="327" y="340"/>
      <point x="374" y="373"/>
      <point x="408" y="423" type="curve"/>
      <point x="436" y="370"/>
      <point x="490" y="340"/>
      <point x="566" y="340" type="curve" smooth="yes"/>
      <point x="619" y="340"/>
      <point x="659" y="359"/>
      <point x="690" y="392" type="curve"/>
      <point x="694" y="279"/>
      <point x="711" y="176"/>
      <point x="711" y="112" type="curve" smooth="yes"/>
      <point x="711" y="60"/>
      <point x="672" y="34"/>
      <point x="614" y="34" type="curve" smooth="yes"/>
      <point x="325" y="34"/>
      <point x="303" y="121"/>
      <point x="166" y="121" type="curve" smooth="yes"/>
      <point x="139" y="121"/>
      <point x="113" y="119"/>
      <point x="100" y="117" type="curve"/>
      <point x="81" y="2" type="line"/>
      <point x="97" y="6"/>
      <point x="140" y="8"/>
      <point x="161" y="8" type="curve" smooth="yes"/>
      <point x="314" y="8"/>
      <point x="374" y="-43"/>
    </contour>
  </outline>
</glyph>
<glyph name="uni080F" format="2">
  <advance width="898"/>
  <unicode hex="080F"/>
  <outline>
    <contour>
      <point x="453" y="75" type="curve" smooth="yes"/>
      <point x="648" y="75"/>
      <point x="810" y="385"/>
      <point x="810" y="569" type="curve" smooth="yes"/>
      <point x="810" y="577"/>
      <point x="809" y="584"/>
      <point x="809" y="591" type="curve"/>
      <point x="759" y="626"/>
      <point x="652" y="664"/>
      <point x="456" y="664" type="curve" smooth="yes"/>
      <point x="258" y="664"/>
      <point x="116" y="628"/>
      <point x="88" y="591" type="curve"/>
      <point x="88" y="450"/>
      <point x="221" y="75"/>
    </contour>
    <contour>
      <point x="465" y="173" type="curve" smooth="yes"/>
      <point x="359" y="173"/>
      <point x="215" y="407"/>
      <point x="215" y="526" type="curve" smooth="yes"/>
      <point x="215" y="564"/>
      <point x="337" y="586"/>
      <point x="456" y="586" type="curve" smooth="yes"/>
      <point x="580" y="586"/>
      <point x="723" y="564"/>
      <point x="723" y="526" type="curve" smooth="yes"/>
      <point x="723" y="385"/>
      <point x="571" y="173"/>
    </contour>
  </outline>
</glyph>
<glyph name="uni0811" format="2">
  <advance width="1072"/>
  <unicode hex="0811"/>
  <outline>
    <contour>
      <point x="792" y="-37" type="line"/>
      <point x="801" y="86"/>
      <point x="984" y="321"/>
      <point x="984" y="494" type="curve" smooth="yes"/>
      <point x="984" y="606"/>
      <point x="915" y="664"/>
      <point x="825" y="664" type="curve" smooth="yes"/>
      <point x="753" y="664"/>
      <point x="688" y="623"/>
      <point x="632" y="562" type="curve"/>
      <point x="607" y="605"/>
      <point x="564" y="626"/>
      <point x="508" y="626" type="curve" smooth="yes"/>
      <point x="377" y="626"/>
      <point x="269" y="498"/>
      <point x="204" y="349" type="curve"/>
      <point x="164" y="364"/>
      <point x="122" y="375"/>
      <point x="79" y="375" type="curve" smooth="yes"/>
      <point x="59" y="375"/>
      <point x="39" y="373"/>
      <point x="20" y="367" type="curve"/>
      <point x="38" y="262" type="line"/>
      <point x="63" y="272"/>
      <point x="87" y="274"/>
      <point x="113" y="274" type="curve" smooth="yes"/>
      <point x="164" y="274"/>
      <point x="215" y="257"/>
      <point x="286" y="225" type="curve"/>
      <point x="312" y="326"/>
      <point x="378" y="551"/>
      <point x="499" y="551" type="curve" smooth="yes"/>
      <point x="541" y="551"/>
      <point x="565" y="529"/>
      <point x="572" y="486" type="curve"/>
      <point x="469" y="336"/>
      <point x="406" y="138"/>
      <point x="404" y="92" type="curve"/>
      <point x="532" y="106" type="line"/>
      <point x="536" y="182"/>
      <point x="666" y="589"/>
      <point x="815" y="589" type="curve" smooth="yes"/>
      <point x="869" y="589"/>
      <point x="904" y="552"/>
      <point x="904" y="495" type="curve" smooth="yes"/>
      <point x="904" y="345"/>
      <point x="688" y="118"/>
      <point x="669" y="0" type="curve"/>
    </contour>
  </outline>
</glyph>
<glyph name="uni0819" format="2">
  <unicode hex="0819"/>
  <outline>
    <contour>
      <point x="4" y="784" type="line"/>
      <point x="49" y="808"/>
      <point x="146" y="849"/>
      <point x="212" y="869" type="curve"/>
      <point x="224" y="923" type="line"/>
      <point x="184" y="935"/>
      <point x="78" y="984"/>
      <point x="36" y="1017" type="curve"/>
      <point x="8" y="970" type="line"/>
      <point x="53" y="942"/>
      <point x="109" y="918"/>
      <point x="151" y="904" type="curve"/>
      <point x="77" y="885"/>
      <point x="52" y="872"/>
      <point x="9" y="848" type="curve"/>
    </contour>
  </outline>
</glyph>
<glyph name="uni081B" format="2">
  <unicode hex="081B"/>
  <outline>
    <contour>
      <point x="68" y="791" type="line"/>
      <point x="77" y="826"/>
      <point x="88" y="842"/>
      <point x="117" y="842" type="curve" smooth="yes"/>
      <point x="171" y="842"/>
      <point x="214" y="791"/>
      <point x="265" y="791" type="curve" smooth="yes"/>
      <point x="316" y="791"/>
      <point x="358" y="821"/>
      <point x="374" y="880" type="curve"/>
      <point x="304" y="909" type="line"/>
      <point x="295" y="874"/>
      <point x="283" y="857"/>
      <point x="255" y="857" type="curve" smooth="yes"/>
      <point x="204" y="857"/>
      <point x="158" y="908"/>
      <point x="105" y="908" type="curve" smooth="yes"/>
      <point x="49" y="908"/>
      <point x="13" y="876"/>
      <point x="0" y="820" type="curve"/>
    </contour>
  </outline>
</glyph>
<glyph name="uni081C" format="2">
  <unicode hex="081C"/>
  <outline>
    <contour>
      <point x="-135" y="781" type="line"/>
      <point x="-107" y="851"/>
      <point x="-60" y="929"/>
      <point x="-1" y="994" type="curve"/>
      <point x="-53" y="1032" type="line"/>
      <point x="-92" y="985"/>
      <point x="-126" y="933"/>
      <point x="-152" y="873" type="curve"/>
      <point x="-173" y="942"/>
      <point x="-192" y="987"/>
      <point x="-227" y="1046" type="curve"/>
      <point x="-308" y="1012" type="line"/>
      <point x="-263" y="955"/>
      <point x="-224" y="877"/>
      <point x="-194" y="796" type="curve"/>
    </contour>
  </outline>
</glyph>
<glyph name="uni081D" format="2">
  <unicode hex="081D"/>
  <outline>
    <contour>
      <point x="-131" y="784" type="line"/>
      <point x="-107" y="846"/>
      <point x="-67" y="905"/>
      <point x="-24" y="954" type="curve"/>
      <point x="-66" y="984" type="line"/>
      <point x="-90" y="957"/>
      <point x="-122" y="910"/>
      <point x="-145" y="856" type="curve"/>
      <point x="-161" y="914"/>
      <point x="-173" y="938"/>
      <point x="-205" y="995" type="curve"/>
      <point x="-270" y="968" type="line"/>
      <point x="-234" y="923"/>
      <point x="-202" y="861"/>
      <point x="-179" y="796" type="curve"/>
    </contour>
  </outline>
</glyph>
<glyph name="uni081E" format="2">
  <unicode hex="081E"/>
  <outline>
    <contour>
      <point x="-95" y="787" type="curve"/>
      <point x="-37" y="791" type="line"/>
      <point x="-23" y="861"/>
      <point x="-15" y="936"/>
      <point x="-15" y="997" type="curve" smooth="yes"/>
      <point x="-15" y="1019"/>
      <point x="-16" y="1039"/>
      <point x="-18" y="1058" type="curve"/>
      <point x="-119" y="1041" type="line"/>
      <point x="-104" y="993"/>
      <point x="-93" y="883"/>
      <point x="-93" y="823" type="curve" smooth="yes"/>
      <point x="-93" y="809"/>
      <point x="-94" y="797"/>
    </contour>
  </outline>
</glyph>
<glyph name="uni081F" format="2">
  <unicode hex="081F"/>
  <outline>
    <contour>
      <point x="-83" y="787" type="curve"/>
      <point x="-33" y="791" type="line"/>
      <point x="-21" y="852"/>
      <point x="-15" y="913"/>
      <point x="-15" y="970" type="curve" smooth="yes"/>
      <point x="-15" y="989"/>
      <point x="-15" y="1006"/>
      <point x="-18" y="1023" type="curve"/>
      <point x="-104" y="1008" type="line"/>
      <point x="-90" y="965"/>
      <point x="-82" y="872"/>
      <point x="-82" y="818" type="curve" smooth="yes"/>
      <point x="-82" y="807"/>
      <point x="-83" y="796"/>
    </contour>
  </outline>
</glyph>
<glyph name="uni0821" format="2">
  <unicode hex="0821"/>
  <outline>
    <contour>
      <point x="-414" y="791" type="line"/>
      <point x="-11" y="791" type="line"/>
      <point x="0" y="854" type="line"/>
      <point x="-403" y="854" type="line"/>
    </contour>
  </outline>
</glyph>
<glyph name="uni0824" format="2">
  <advance width="229"/>
  <unicode hex="0824"/>
  <outline>
    <contour>
      <point x="44" y="743" type="line"/>
      <point x="112" y="811"/>
      <point x="187" y="932"/>
      <point x="210" y="1021" type="curve"/>
      <point x="115" y="1007" type="line"/>
      <point x="100" y="936"/>
      <point x="54" y="825"/>
      <point x="12" y="756" type="curve"/>
    </contour>
  </outline>
</glyph>
<glyph name="uni0825" format="2">
  <unicode hex="0825"/>
  <outline>
    <contour>
      <point x="-167" y="783" type="line"/>
      <point x="-98" y="850"/>
      <point x="-24" y="971"/>
      <point x="0" y="1061" type="curve"/>
      <point x="-95" y="1047" type="line"/>
      <point x="-113" y="971"/>
      <point x="-158" y="862"/>
      <point x="-199" y="796" type="curve"/>
    </contour>
  </outline>
</glyph>
<glyph name="uni0826" format="2">
  <unicode hex="0826"/>
  <outline>
    <contour>
      <point x="-226" y="780" type="line"/>
      <point x="-190" y="842"/>
      <point x="-170" y="887"/>
      <point x="-151" y="954" type="curve"/>
      <point x="-125" y="894"/>
      <point x="-91" y="841"/>
      <point x="-52" y="794" type="curve"/>
      <point x="0" y="833" type="line"/>
      <point x="-58" y="897"/>
      <point x="-106" y="976"/>
      <point x="-133" y="1045" type="curve"/>
      <point x="-193" y="1030" type="line"/>
      <point x="-223" y="949"/>
      <point x="-262" y="871"/>
      <point x="-307" y="814" type="curve"/>
    </contour>
  </outline>
</glyph>
<glyph name="uni082A" format="2">
  <unicode hex="082A"/>
  <outline>
    <contour>
      <point x="-53" y="791" type="curve"/>
      <point x="-21" y="850" type="line"/>
      <point x="-81" y="887"/>
      <point x="-130" y="906"/>
      <point x="-170" y="910" type="curve"/>
      <point x="-95" y="935"/>
      <point x="-58" y="948"/>
      <point x="-26" y="971" type="curve"/>
      <point x="-47" y="1011" type="line"/>
      <point x="-76" y="989"/>
      <point x="-137" y="960"/>
      <point x="-228" y="927" type="curve"/>
      <point x="-241" y="875" type="line"/>
      <point x="-173" y="855"/>
      <point x="-102" y="829"/>
    </contour>
  </outline>
</glyph>
<glyph name="uni082B" format="2">
  <unicode hex="082B"/>
  <outline>
    <contour>
      <point x="-40" y="769" type="curve"/>
      <point x="1" y="819" type="line"/>
      <point x="-50" y="876"/>
      <point x="-119" y="990"/>
      <point x="-146" y="1062" type="curve"/>
      <point x="-181" y="1052" type="line"/>
      <point x="-208" y="979"/>
      <point x="-255" y="893"/>
      <point x="-327" y="790" type="curve"/>
      <point x="-93" y="775"/>
      <point x="-50" y="772"/>
    </contour>
    <contour>
      <point x="-76" y="824" type="curve"/>
      <point x="-225" y="831" type="line"/>
      <point x="-203" y="869"/>
      <point x="-171" y="934"/>
      <point x="-156" y="979" type="curve"/>
      <point x="-145" y="951"/>
      <point x="-128" y="919"/>
    </contour>
  </outline>
</glyph>
<glyph name="uni0830" format="2">
  <advance width="359"/>
  <unicode hex="0830"/>
  <outline>
    <contour>
      <point x="197" y="282" type="line"/>
      <point x="261" y="382" type="line"/>
      <point x="165" y="448" type="line"/>
      <point x="98" y="349" type="line"/>
    </contour>
  </outline>
</glyph>
<glyph name="uni0831" format="2">
  <advance width="359"/>
  <unicode hex="0831"/>
  <outline>
    <contour>
      <point x="197" y="451" type="line"/>
      <point x="261" y="551" type="line"/>
      <point x="165" y="617" type="line"/>
      <point x="98" y="518" type="line"/>
    </contour>
    <contour>
      <point x="197" y="76" type="line"/>
      <point x="261" y="176" type="line"/>
      <point x="165" y="242" type="line"/>
      <point x="98" y="143" type="line"/>
    </contour>
  </outline>
</glyph>
<glyph name="uni0832" format="2">
  <advance width="591"/>
  <unicode hex="0832"/>
  <outline>
    <contour>
      <point x="429" y="519" type="line"/>
      <point x="494" y="619" type="line"/>
      <point x="397" y="686" type="line"/>
      <point x="330" y="586" type="line"/>
    </contour>
    <contour>
      <point x="197" y="519" type="line"/>
      <point x="261" y="619" type="line"/>
      <point x="165" y="686" type="line"/>
      <point x="98" y="586" type="line"/>
    </contour>
  </outline>
</glyph>
<glyph name="uni0835" format="2">
  <advance width="579"/>
  <unicode hex="0835"/>
  <outline>
    <contour>
      <point x="481" y="34" type="curve"/>
      <point x="474" y="137" type="line"/>
      <point x="319" y="171"/>
      <point x="201" y="225"/>
      <point x="201" y="262" type="curve" smooth="yes"/>
      <point x="201" y="292"/>
      <point x="252" y="328"/>
      <point x="451" y="341" type="curve"/>
      <point x="443" y="406" type="line"/>
      <point x="263" y="398"/>
      <point x="124" y="354"/>
      <point x="105" y="275" type="curve" smooth="yes"/>
      <point x="100" y="253" type="line" smooth="yes"/>
      <point x="99" y="248"/>
      <point x="98" y="244"/>
      <point x="98" y="239" type="curve" smooth="yes"/>
      <point x="98" y="126"/>
      <point x="416" y="42"/>
    </contour>
    <contour>
      <point x="214" y="467" type="line"/>
      <point x="266" y="547" type="line"/>
      <point x="188" y="601" type="line"/>
      <point x="135" y="521" type="line"/>
    </contour>
    <contour>
      <point x="375" y="467" type="line"/>
      <point x="427" y="547" type="line"/>
      <point x="350" y="601" type="line"/>
      <point x="296" y="521" type="line"/>
    </contour>
  </outline>
</glyph>
<glyph name="uni0837" format="2">
  <advance width="1309"/>
  <unicode hex="0837"/>
  <outline>
    <contour>
      <point x="950" y="59" type="line"/>
      <point x="1034" y="117"/>
      <point x="1040" y="179"/>
      <point x="1040" y="235" type="curve" smooth="yes"/>
      <point x="1040" y="339"/>
      <point x="918" y="435"/>
      <point x="819" y="539" type="curve"/>
      <point x="833" y="545"/>
      <point x="849" y="546"/>
      <point x="867" y="546" type="curve" smooth="yes"/>
      <point x="947" y="546"/>
      <point x="1023" y="500"/>
      <point x="1135" y="500" type="curve" smooth="yes"/>
      <point x="1148" y="500"/>
      <point x="1180" y="501"/>
      <point x="1192" y="503" type="curve"/>
      <point x="1211" y="613" type="line"/>
      <point x="1196" y="609"/>
      <point x="1158" y="607"/>
      <point x="1136" y="607" type="curve" smooth="yes"/>
      <point x="1021" y="607"/>
      <point x="981" y="622"/>
      <point x="853" y="622" type="curve" smooth="yes"/>
      <point x="805" y="622"/>
      <point x="767" y="613"/>
      <point x="736" y="599" type="curve"/>
      <point x="753" y="535" type="line"/>
      <point x="792" y="488"/>
      <point x="949" y="369"/>
      <point x="949" y="270" type="curve" smooth="yes"/>
      <point x="949" y="216"/>
      <point x="925" y="188"/>
      <point x="879" y="162" type="curve"/>
    </contour>
    <contour>
      <point x="98" y="320" type="line"/>
      <point x="748" y="320" type="line"/>
      <point x="762" y="407" type="line"/>
      <point x="112" y="407" type="line"/>
    </contour>
  </outline>
</glyph>
<glyph name="uni0838" format="2">
  <advance width="1075"/>
  <unicode hex="0838"/>
  <outline>
    <contour>
      <point x="98" y="320" type="line"/>
      <point x="748" y="320" type="line"/>
      <point x="762" y="407" type="line"/>
      <point x="112" y="407" type="line"/>
    </contour>
    <contour>
      <point x="913" y="282" type="line"/>
      <point x="977" y="382" type="line"/>
      <point x="881" y="448" type="line"/>
      <point x="813" y="349" type="line"/>
    </contour>
  </outline>
</glyph>
<glyph name="uni083A" format="2">
  <advance width="1064"/>
  <unicode hex="083A"/>
  <outline>
    <contour>
      <point x="98" y="418" type="line"/>
      <point x="748" y="418" type="line"/>
      <point x="762" y="505" type="line"/>
      <point x="112" y="505" type="line"/>
    </contour>
    <contour>
      <point x="98" y="198" type="line"/>
      <point x="748" y="198" type="line"/>
      <point x="762" y="285" type="line"/>
      <point x="112" y="285" type="line"/>
    </contour>
    <contour>
      <point x="902" y="76" type="line"/>
      <point x="966" y="176" type="line"/>
      <point x="870" y="242" type="line"/>
      <point x="803" y="143" type="line"/>
    </contour>
    <contour>
      <point x="902" y="451" type="line"/>
      <point x="966" y="551" type="line"/>
      <point x="870" y="617" type="line"/>
      <point x="803" y="518" type="line"/>
    </contour>
  </outline>
</glyph>
<glyph name="uni083B" format="2">
  <advance width="502"/>
  <unicode hex="083B"/>
  <outline>
    <contour>
      <point x="98" y="84" type="line"/>
      <point x="182" y="84" type="line"/>
      <point x="182" y="609" type="line"/>
      <point x="98" y="609" type="line"/>
    </contour>
    <contour>
      <point x="341" y="76" type="line"/>
      <point x="405" y="176" type="line"/>
      <point x="309" y="242" type="line"/>
      <point x="241" y="143" type="line"/>
    </contour>
    <contour>
      <point x="341" y="451" type="line"/>
      <point x="405" y="551" type="line"/>
      <point x="309" y="617" type="line"/>
      <point x="241" y="518" type="line"/>
    </contour>
  </outline>
</glyph>
<glyph name="uni083C" format="2">
  <advance width="616"/>
  <unicode hex="083C"/>
  <outline>
    <contour>
      <point x="165" y="147" type="line"/>
      <point x="519" y="608" type="line"/>
      <point x="452" y="661" type="line"/>
      <point x="98" y="200" type="line"/>
    </contour>
  </outline>
</glyph>
<glyph name="uni2E31" format="2">
  <advance width="425"/>
  <unicode hex="2E31"/>
  <outline>
    <contour>
      <point x="207" y="292" type="curve" smooth="yes"/>
      <point x="249" y="292"/>
      <point x="284" y="322"/>
      <point x="284" y="370" type="curve" smooth="yes"/>
      <point x="284" y="413"/>
      <point x="258" y="440"/>
      <point x="219" y="440" type="curve" smooth="yes"/>
      <point x="173" y="440"/>
      <point x="141" y="409"/>
      <point x="141" y="356" type="curve" smooth="yes"/>
      <point x="141" y="315"/>
      <point x="164" y="292"/>
    </contour>
  </outline>
</glyph>
<glyph name="uni0818.alt" format="2">
  <outline>
    <contour>
      <point x="0" y="791" type="line"/>
      <point x="374" y="791" type="line"/>
      <point x="384" y="854" type="line"/>
      <point x="11" y="854" type="line"/>
    </contour>
  </outline>
</glyph>
